<svg xmlns="http://www.w3.org/2000/svg" viewBox="0 0 910 830.0" width="910" height="830.0">
<style>
  text { font-family: "Consolas", "Monaco", monospace; }
  .title { font-size: 16px; font-weight: bold; fill: #333; }
  .col-title { font-size: 13px; font-weight: bold; fill: #555; }
  .region-name { font-size: 9px; }
  .region-size { font-size: 8px; opacity: 0.8; }
  .addr { font-size: 8px; fill: #666; }
  .legend-text { font-size: 10px; fill: #333; }
  rect.region { stroke: #666; stroke-width: 0.5; }
  pattern#hatch { patternUnits: userSpaceOnUse; }
</style>
<defs>
  <pattern id="hatch" width="6" height="6" patternTransform="rotate(45)"   patternUnits="userSpaceOnUse">
    <line x1="0" y1="0" x2="0" y2="6" stroke="#CCC" stroke-width="1.5"/>
  </pattern>
  <pattern id="hatch-orange" width="6" height="6" patternTransform="rotate(45)"   patternUnits="userSpaceOnUse">
    <rect width="6" height="6" fill="#F5C882"/>
    <line x1="0" y1="0" x2="0" y2="6" stroke="#D4981C" stroke-width="1.5"/>
  </pattern>
  <linearGradient id="stack-grad" x1="0" y1="0" x2="0" y2="1">
    <stop offset="0%" stop-color="#7E57C2" stop-opacity="1"/>
    <stop offset="100%" stop-color="#7E57C2" stop-opacity="0"/>
  </linearGradient>
</defs>
<text x="455.0" y="30" text-anchor="middle" class="title">Dongle Working 256K</text>
<text x="240.0" y="42" text-anchor="middle" class="col-title">Flash (128 KiB)</text>
<rect x="110" y="50.0" width="260" height="72.9" fill="#4682B4" class="region"/>
<text x="106" y="61.0" class="addr" text-anchor="end">0x08000000</text>
<text x="240.0" y="87.4" text-anchor="middle" class="region-name" fill="#FFFFFF">bootloader</text>
<text x="240.0" y="96.4" text-anchor="middle" class="region-size" fill="#FFFFFF">13.9 KiB</text>
<rect x="110" y="122.9" width="260" height="31.9" fill="url(#hatch)" class="region"/>
<text x="106" y="133.9" class="addr" text-anchor="end">0x080037A0</text>
<text x="240.0" y="141.8" text-anchor="middle" class="region-name" fill="#888888">(unused) (6.1 KiB)</text>
<rect x="110" y="154.8" width="260" height="117.4" fill="#4682B4" class="region"/>
<text x="106" y="165.8" class="addr" text-anchor="end">0x08005000</text>
<text x="240.0" y="214.5" text-anchor="middle" class="region-name" fill="#FFFFFF">firmware_code</text>
<text x="240.0" y="223.5" text-anchor="middle" class="region-size" fill="#FFFFFF">22.4 KiB</text>
<rect x="110" y="272.2" width="260" height="20.0" fill="url(#hatch)" class="region"/>
<text x="106" y="283.2" class="addr" text-anchor="end">0x0800A9A0</text>
<text x="240.0" y="285.2" text-anchor="middle" class="region-name" fill="#888888">(unused) (1.6 KiB)</text>
<rect x="110" y="292.2" width="260" height="20.0" fill="#E8820C" class="region"/>
<text x="106" y="303.2" class="addr" text-anchor="end">0x0800B000</text>
<text x="240.0" y="305.2" text-anchor="middle" class="region-name" fill="#FFFFFF">Patch (used) (454 B)</text>
<rect x="110" y="312.2" width="260" height="50.1" fill="url(#hatch-orange)" class="region"/>
<text x="106" y="323.2" class="addr" text-anchor="end">0x0800B1C6</text>
<text x="240.0" y="338.2" text-anchor="middle" class="region-name" fill="#886620">Patch (free)</text>
<text x="240.0" y="347.2" text-anchor="middle" class="region-size" fill="#886620">9.6 KiB</text>
<rect x="110" y="362.3" width="260" height="387.7" fill="url(#hatch)" class="region"/>
<text x="106" y="373.3" class="addr" text-anchor="end">0x0800D800</text>
<text x="240.0" y="557.1" text-anchor="middle" class="region-name" fill="#888888">(unused)</text>
<text x="240.0" y="566.1" text-anchor="middle" class="region-size" fill="#888888">74 KiB</text>
<text x="106" y="761.0" class="addr" text-anchor="end">0x08020000</text>
<text x="670.0" y="42" text-anchor="middle" class="col-title">SRAM (96 KiB)</text>
<rect x="540" y="50.0" width="260" height="20.0" fill="#4682B4" class="region"/>
<text x="536" y="61.0" class="addr" text-anchor="end">0x20000000</text>
<text x="670.0" y="63.0" text-anchor="middle" class="region-name" fill="#FFFFFF">SPI flags (64 B)</text>
<rect x="540" y="70.0" width="260" height="20.0" fill="#4682B4" class="region"/>
<text x="536" y="81.0" class="addr" text-anchor="end">0x20000040</text>
<text x="670.0" y="83.0" text-anchor="middle" class="region-name" fill="#FFFFFF">USB class handler (368 B)</text>
<rect x="540" y="90.0" width="260" height="20.0" fill="#4682B4" class="region"/>
<text x="536" y="101.0" class="addr" text-anchor="end">0x200001B0</text>
<text x="670.0" y="103.0" text-anchor="middle" class="region-name" fill="#FFFFFF">USB descriptors (384 B)</text>
<rect x="540" y="110.0" width="260" height="20.0" fill="#4682B4" class="region"/>
<text x="536" y="121.0" class="addr" text-anchor="end">0x20000330</text>
<text x="670.0" y="123.0" text-anchor="middle" class="region-name" fill="#FFFFFF">Dongle state (340 B)</text>
<rect x="540" y="130.0" width="260" height="20.0" fill="#4682B4" class="region"/>
<text x="536" y="141.0" class="addr" text-anchor="end">0x20000484</text>
<text x="670.0" y="143.0" text-anchor="middle" class="region-name" fill="#FFFFFF">USB device (816 B)</text>
<rect x="540" y="150.0" width="260" height="20.0" fill="#4682B4" class="region"/>
<text x="536" y="161.0" class="addr" text-anchor="end">0x200007B4</text>
<text x="670.0" y="163.0" text-anchor="middle" class="region-name" fill="#FFFFFF">EP report bufs (128 B)</text>
<rect x="540" y="170.0" width="260" height="20.0" fill="#4682B4" class="region"/>
<text x="536" y="181.0" class="addr" text-anchor="end">0x20000834</text>
<text x="670.0" y="183.0" text-anchor="middle" class="region-name" fill="#FFFFFF">SPI buffer (240 B)</text>
<rect x="540" y="190.0" width="260" height="29.8" fill="#4682B4" class="region"/>
<text x="536" y="201.0" class="addr" text-anchor="end">0x20000924</text>
<text x="670.0" y="207.9" text-anchor="middle" class="region-name" fill="#FFFFFF">String descs (5.7 KiB)</text>
<rect x="540" y="219.8" width="260" height="20.0" fill="url(#hatch)" class="region"/>
<rect x="540" y="219.8" width="260" height="20.0" fill="url(#stack-grad)" stroke="none"/>
<text x="536" y="230.8" class="addr" text-anchor="end">0x20000AB0</text>
<text x="670.0" y="232.8" text-anchor="middle" class="region-name" fill="#333333">Stack (2 KiB)</text>
<rect x="540" y="239.8" width="260" height="17.3" fill="url(#hatch)" class="region"/>
<text x="536" y="250.8" class="addr" text-anchor="end">0x200012B0</text>
<text x="670.0" y="251.4" text-anchor="middle" class="region-name" fill="#888888">(unused) (3.3 KiB)</text>
<rect x="540" y="257.1" width="260" height="20.0" fill="#E8820C" class="region"/>
<text x="536" y="268.1" class="addr" text-anchor="end">0x20002000</text>
<text x="670.0" y="270.1" text-anchor="middle" class="region-name" fill="#FFFFFF">Patch (used) (232 B)</text>
<rect x="540" y="277.1" width="260" height="20.0" fill="url(#hatch-orange)" class="region"/>
<text x="536" y="288.1" class="addr" text-anchor="end">0x200020E8</text>
<text x="670.0" y="290.1" text-anchor="middle" class="region-name" fill="#886620">Patch (free) (792 B)</text>
<rect x="540" y="297.1" width="260" height="452.9" fill="url(#hatch)" class="region"/>
<text x="536" y="308.1" class="addr" text-anchor="end">0x20002400</text>
<text x="670.0" y="524.5" text-anchor="middle" class="region-name" fill="#888888">(unused)</text>
<text x="670.0" y="533.5" text-anchor="middle" class="region-size" fill="#888888">87 KiB</text>
<text x="536" y="761.0" class="addr" text-anchor="end">0x20018000</text>
<rect x="20" y="770.0" width="14" height="14" fill="#4682B4" stroke="#999" stroke-width="0.5"/>
<text x="40" y="780.0" class="legend-text">Firmware / globals</text>
<rect x="186" y="770.0" width="14" height="14" fill="#4CAF50" stroke="#999" stroke-width="0.5"/>
<text x="206" y="780.0" class="legend-text">Config / keymaps</text>
<rect x="338" y="770.0" width="14" height="14" fill="#E8820C" stroke="#999" stroke-width="0.5"/>
<text x="358" y="780.0" class="legend-text">Patch (used)</text>
<rect x="462" y="770.0" width="14" height="14" fill="url(#hatch-orange)" stroke="#999" stroke-width="0.5"/>
<text x="482" y="780.0" class="legend-text">Patch (free)</text>
<rect x="586" y="770.0" width="14" height="14" fill="url(#hatch)" stroke="#999" stroke-width="0.5"/>
<rect x="586" y="770.0" width="14" height="14" fill="url(#stack-grad)" stroke="none"/>
<text x="606" y="780.0" class="legend-text">Stack</text>
<rect x="661" y="770.0" width="14" height="14" fill="url(#hatch)" stroke="#999" stroke-width="0.5"/>
<text x="681" y="780.0" class="legend-text">Unused</text>
</svg>