<svg xmlns="http://www.w3.org/2000/svg" viewBox="0 0 910 830.0" width="910" height="830.0">
<style>
  text { font-family: "Consolas", "Monaco", monospace; }
  .title { font-size: 16px; font-weight: bold; fill: #333; }
  .col-title { font-size: 13px; font-weight: bold; fill: #555; }
  .region-name { font-size: 9px; }
  .region-size { font-size: 8px; opacity: 0.8; }
  .addr { font-size: 8px; fill: #666; }
  .legend-text { font-size: 10px; fill: #333; }
  rect.region { stroke: #666; stroke-width: 0.5; }
  pattern#hatch { patternUnits: userSpaceOnUse; }
</style>
<defs>
  <pattern id="hatch" width="6" height="6" patternTransform="rotate(45)"   patternUnits="userSpaceOnUse">
    <line x1="0" y1="0" x2="0" y2="6" stroke="#CCC" stroke-width="1.5"/>
  </pattern>
  <pattern id="hatch-orange" width="6" height="6" patternTransform="rotate(45)"   patternUnits="userSpaceOnUse">
    <rect width="6" height="6" fill="#F5C882"/>
    <line x1="0" y1="0" x2="0" y2="6" stroke="#D4981C" stroke-width="1.5"/>
  </pattern>
  <linearGradient id="stack-grad" x1="0" y1="0" x2="0" y2="1">
    <stop offset="0%" stop-color="#7E57C2" stop-opacity="1"/>
    <stop offset="100%" stop-color="#7E57C2" stop-opacity="0"/>
  </linearGradient>
</defs>
<text x="455.0" y="30" text-anchor="middle" class="title">Firmware Reconstructed</text>
<text x="240.0" y="42" text-anchor="middle" class="col-title">Flash (256 KiB)</text>
<rect x="110" y="50.0" width="260" height="47.2" fill="#4682B4" class="region"/>
<text x="106" y="61.0" class="addr" text-anchor="end">0x08000000</text>
<text x="240.0" y="74.6" text-anchor="middle" class="region-name" fill="#FFFFFF">Bootloader</text>
<text x="240.0" y="83.6" text-anchor="middle" class="region-size" fill="#FFFFFF">20 KiB</text>
<rect x="110" y="97.2" width="260" height="305.8" fill="#4682B4" class="region"/>
<text x="106" y="108.2" class="addr" text-anchor="end">0x08005000</text>
<text x="240.0" y="251.1" text-anchor="middle" class="region-name" fill="#FFFFFF">Firmware code</text>
<text x="240.0" y="260.1" text-anchor="middle" class="region-size" fill="#FFFFFF">129.6 KiB</text>
<rect x="110" y="403.0" width="260" height="20.0" fill="url(#hatch)" class="region"/>
<text x="106" y="414.0" class="addr" text-anchor="end">0x08025680</text>
<text x="240.0" y="416.0" text-anchor="middle" class="region-name" fill="#888888">(unused) (384 B)</text>
<rect x="110" y="423.0" width="260" height="20.0" fill="#E8820C" class="region"/>
<text x="106" y="434.0" class="addr" text-anchor="end">0x08025800</text>
<text x="240.0" y="436.0" text-anchor="middle" class="region-name" fill="#FFFFFF">Patch (used) (2.3 KiB)</text>
<rect x="110" y="443.0" width="260" height="18.3" fill="url(#hatch-orange)" class="region"/>
<text x="106" y="454.0" class="addr" text-anchor="end">0x08026106</text>
<text x="240.0" y="455.1" text-anchor="middle" class="region-name" fill="#886620">Patch (free) (7.7 KiB)</text>
<rect x="110" y="461.3" width="260" height="20.0" fill="#4CAF50" class="region"/>
<text x="106" y="472.3" class="addr" text-anchor="end">0x08028000</text>
<text x="240.0" y="474.3" text-anchor="middle" class="region-name" fill="#FFFFFF">config_header (2 KiB)</text>
<rect x="110" y="481.3" width="260" height="18.9" fill="#4CAF50" class="region"/>
<text x="106" y="492.3" class="addr" text-anchor="end">0x08028800</text>
<text x="240.0" y="493.7" text-anchor="middle" class="region-name" fill="#FFFFFF">keymaps (8 KiB)</text>
<rect x="110" y="500.1" width="260" height="20.0" fill="#4CAF50" class="region"/>
<text x="106" y="511.1" class="addr" text-anchor="end">0x0802A800</text>
<text x="240.0" y="513.1" text-anchor="middle" class="region-name" fill="#FFFFFF">fn_layers (4 KiB)</text>
<rect x="110" y="520.1" width="260" height="33.0" fill="#4CAF50" class="region"/>
<text x="106" y="531.1" class="addr" text-anchor="end">0x0802B800</text>
<text x="240.0" y="537.7" text-anchor="middle" class="region-name" fill="#FFFFFF">macros</text>
<text x="240.0" y="546.7" text-anchor="middle" class="region-size" fill="#FFFFFF">14 KiB</text>
<rect x="110" y="553.2" width="260" height="20.0" fill="url(#hatch)" class="region"/>
<text x="106" y="564.2" class="addr" text-anchor="end">0x0802F000</text>
<text x="240.0" y="566.2" text-anchor="middle" class="region-name" fill="#888888">(unused) (2 KiB)</text>
<rect x="110" y="573.2" width="260" height="20.0" fill="#4CAF50" class="region"/>
<text x="106" y="584.2" class="addr" text-anchor="end">0x0802F800</text>
<text x="240.0" y="586.2" text-anchor="middle" class="region-name" fill="#FFFFFF">userpics (2 KiB)</text>
<rect x="110" y="593.2" width="260" height="18.9" fill="url(#hatch)" class="region"/>
<text x="106" y="604.2" class="addr" text-anchor="end">0x08030000</text>
<text x="240.0" y="605.6" text-anchor="middle" class="region-name" fill="#888888">(unused) (8 KiB)</text>
<rect x="110" y="612.0" width="260" height="20.0" fill="#4CAF50" class="region"/>
<text x="106" y="623.0" class="addr" text-anchor="end">0x08032000</text>
<text x="240.0" y="625.0" text-anchor="middle" class="region-name" fill="#FFFFFF">calib_data (6 KiB)</text>
<rect x="110" y="632.0" width="260" height="37.7" fill="#4CAF50" class="region"/>
<text x="106" y="643.0" class="addr" text-anchor="end">0x08033800</text>
<text x="240.0" y="651.9" text-anchor="middle" class="region-name" fill="#FFFFFF">magnetism</text>
<text x="240.0" y="660.9" text-anchor="middle" class="region-size" fill="#FFFFFF">16 KiB</text>
<rect x="110" y="669.8" width="260" height="80.2" fill="url(#hatch)" class="region"/>
<text x="106" y="680.8" class="addr" text-anchor="end">0x08037800</text>
<text x="240.0" y="710.9" text-anchor="middle" class="region-name" fill="#888888">(unused)</text>
<text x="240.0" y="719.9" text-anchor="middle" class="region-size" fill="#888888">34 KiB</text>
<text x="106" y="761.0" class="addr" text-anchor="end">0x08040000</text>
<text x="670.0" y="42" text-anchor="middle" class="col-title">SRAM (96 KiB)</text>
<rect x="540" y="50.0" width="260" height="20.0" fill="#4682B4" class="region"/>
<text x="536" y="61.0" class="addr" text-anchor="end">0x20000000</text>
<text x="670.0" y="63.0" text-anchor="middle" class="region-name" fill="#FFFFFF">HID + descriptors (1 KiB)</text>
<rect x="540" y="70.0" width="260" height="20.0" fill="#4682B4" class="region"/>
<text x="536" y="81.0" class="addr" text-anchor="end">0x20000400</text>
<text x="670.0" y="83.0" text-anchor="middle" class="region-name" fill="#FFFFFF">Kbd state (176 B)</text>
<rect x="540" y="90.0" width="260" height="20.0" fill="#4682B4" class="region"/>
<text x="536" y="101.0" class="addr" text-anchor="end">0x200004B0</text>
<text x="670.0" y="103.0" text-anchor="middle" class="region-name" fill="#FFFFFF">LED DMA buf (1.9 KiB)</text>
<rect x="540" y="110.0" width="260" height="20.0" fill="#4682B4" class="region"/>
<text x="536" y="121.0" class="addr" text-anchor="end">0x20000C60</text>
<text x="670.0" y="123.0" text-anchor="middle" class="region-name" fill="#FFFFFF">LED frame buf (1.9 KiB)</text>
<rect x="540" y="130.0" width="260" height="25.6" fill="#4682B4" class="region"/>
<text x="536" y="141.0" class="addr" text-anchor="end">0x20001410</text>
<text x="670.0" y="145.8" text-anchor="middle" class="region-name" fill="#FFFFFF">Per-key + WS2812 (4 KiB)</text>
<rect x="540" y="155.6" width="260" height="117.0" fill="#4682B4" class="region"/>
<text x="536" y="166.6" class="addr" text-anchor="end">0x20002410</text>
<text x="670.0" y="215.1" text-anchor="middle" class="region-name" fill="#FFFFFF">Mag engine</text>
<text x="670.0" y="224.1" text-anchor="middle" class="region-size" fill="#FFFFFF">18.3 KiB</text>
<rect x="540" y="272.6" width="260" height="34.4" fill="#4682B4" class="region"/>
<text x="536" y="283.6" class="addr" text-anchor="end">0x20006D58</text>
<text x="670.0" y="290.8" text-anchor="middle" class="region-name" fill="#FFFFFF">USB + RF + config</text>
<text x="670.0" y="299.8" text-anchor="middle" class="region-size" fill="#FFFFFF">5.4 KiB</text>
<rect x="540" y="307.0" width="260" height="20.0" fill="#4682B4" class="region"/>
<text x="536" y="318.0" class="addr" text-anchor="end">0x200082DC</text>
<text x="670.0" y="320.0" text-anchor="middle" class="region-name" fill="#FFFFFF">Vendor cmd buf (588 B)</text>
<rect x="540" y="327.0" width="260" height="30.1" fill="#4682B4" class="region"/>
<text x="536" y="338.0" class="addr" text-anchor="end">0x20008528</text>
<text x="670.0" y="345.0" text-anchor="middle" class="region-name" fill="#FFFFFF">LED anim state (4.7 KiB)</text>
<rect x="540" y="357.1" width="260" height="20.0" fill="#E8820C" class="region"/>
<text x="536" y="368.1" class="addr" text-anchor="end">0x20009800</text>
<text x="670.0" y="370.1" text-anchor="middle" class="region-name" fill="#FFFFFF">Patch (used) (778 B)</text>
<rect x="540" y="377.1" width="260" height="20.7" fill="url(#hatch-orange)" class="region"/>
<text x="536" y="388.1" class="addr" text-anchor="end">0x20009B0A</text>
<text x="670.0" y="390.4" text-anchor="middle" class="region-name" fill="#886620">Patch (free) (3.2 KiB)</text>
<rect x="540" y="397.8" width="260" height="59.2" fill="url(#hatch)" class="region"/>
<text x="536" y="408.8" class="addr" text-anchor="end">0x2000A800</text>
<text x="670.0" y="428.4" text-anchor="middle" class="region-name" fill="#888888">(unused)</text>
<text x="670.0" y="437.4" text-anchor="middle" class="region-size" fill="#888888">9.3 KiB</text>
<rect x="540" y="457.0" width="260" height="20.0" fill="url(#hatch)" class="region"/>
<rect x="540" y="457.0" width="260" height="20.0" fill="url(#stack-grad)" stroke="none"/>
<text x="536" y="468.0" class="addr" text-anchor="end">0x2000CD10</text>
<text x="670.0" y="470.0" text-anchor="middle" class="region-name" fill="#333333">Stack (2 KiB)</text>
<rect x="540" y="477.0" width="260" height="273.0" fill="url(#hatch)" class="region"/>
<text x="536" y="488.0" class="addr" text-anchor="end">0x2000D510</text>
<text x="670.0" y="614.5" text-anchor="middle" class="region-name" fill="#888888">(unused)</text>
<text x="670.0" y="623.5" text-anchor="middle" class="region-size" fill="#888888">42.7 KiB</text>
<text x="536" y="761.0" class="addr" text-anchor="end">0x20018000</text>
<rect x="20" y="770.0" width="14" height="14" fill="#4682B4" stroke="#999" stroke-width="0.5"/>
<text x="40" y="780.0" class="legend-text">Firmware / globals</text>
<rect x="186" y="770.0" width="14" height="14" fill="#4CAF50" stroke="#999" stroke-width="0.5"/>
<text x="206" y="780.0" class="legend-text">Config / keymaps</text>
<rect x="338" y="770.0" width="14" height="14" fill="#E8820C" stroke="#999" stroke-width="0.5"/>
<text x="358" y="780.0" class="legend-text">Patch (used)</text>
<rect x="462" y="770.0" width="14" height="14" fill="url(#hatch-orange)" stroke="#999" stroke-width="0.5"/>
<text x="482" y="780.0" class="legend-text">Patch (free)</text>
<rect x="586" y="770.0" width="14" height="14" fill="url(#hatch)" stroke="#999" stroke-width="0.5"/>
<rect x="586" y="770.0" width="14" height="14" fill="url(#stack-grad)" stroke="none"/>
<text x="606" y="780.0" class="legend-text">Stack</text>
<rect x="661" y="770.0" width="14" height="14" fill="url(#hatch)" stroke="#999" stroke-width="0.5"/>
<text x="681" y="780.0" class="legend-text">Unused</text>
</svg>